<svg width="202" height="87" viewBox="0 0 202 87" fill="none" xmlns="http://www.w3.org/2000/svg">
<circle cx="101" cy="55" r="24.5" stroke="#0029F8" stroke-width="15"/>
<path d="M133 79.5C133 83.6421 129.642 87 125.5 87V87C121.358 87 118 83.6421 118 79.5L118 53L133 53L133 79.5Z" fill="#0029F8"/>
<circle cx="32" cy="55" r="24.5" stroke="#0029F8" stroke-width="15"/>
<circle cx="26" cy="52" r="3" fill="#0029F8"/>
<circle cx="37" cy="52" r="3" fill="#0029F8"/>
<path d="M0 7.5C0 3.35786 3.35786 0 7.5 0V0C11.6421 0 15 3.35786 15 7.5V55H0V7.5Z" fill="#0029F8"/>
<path d="M34 52H40" stroke="#0029F8"/>
<path d="M23 52H29" stroke="#0029F8"/>
<path d="M194.5 72C198.642 72 202 75.3579 202 79.5V79.5C202 83.6421 198.642 87 194.5 87L146 87L146 72L194.5 72Z" fill="#0029F8"/>
<path d="M145.5 38C141.358 38 138 34.6421 138 30.5V30.5C138 26.3579 141.358 23 145.5 23L194 23L194 38L145.5 38Z" fill="#0029F8"/>
<circle cx="194.5" cy="30.5" r="7.5" fill="#0029F8"/>
<circle cx="145.5" cy="79.5" r="7.5" fill="#0029F8"/>
<path d="M146 79L194 31" stroke="#0029F8" stroke-width="15"/>
</svg>
